<svg width="18" height="18" viewBox="0 0 18 18" fill="none" xmlns="http://www.w3.org/2000/svg">
<path d="M9.7336 0.879696C9.56095 0.864639 9.38705 0.885651 9.22295 0.941395C9.05885 0.997139 8.90813 1.0864 8.78038 1.2035C8.65262 1.32061 8.55061 1.463 8.48082 1.62164C8.41104 1.78028 8.375 1.9517 8.37501 2.12501V5.30235C8.37285 5.59718 8.47589 5.88312 8.66562 6.10879C8.85536 6.33447 9.11935 6.48509 9.41016 6.5336C9.87482 6.61156 10.308 6.81923 10.6597 7.13269C11.0115 7.44614 11.2675 7.85261 11.3983 8.30525C11.5291 8.75789 11.5293 9.23828 11.3989 9.69102C11.2685 10.1438 11.0128 10.5505 10.6613 10.8642C10.3098 11.178 9.87682 11.386 9.41222 11.4643C8.94763 11.5427 8.47036 11.4881 8.03541 11.307C7.60047 11.1259 7.22556 10.8255 6.95391 10.4406C6.68225 10.0556 6.52491 9.60175 6.50001 9.13126C6.46798 8.48907 6.59923 7.95938 6.89063 7.54845C7.0619 7.30954 7.14265 7.01753 7.11846 6.72458C7.09428 6.43162 6.96673 6.15681 6.7586 5.94923L4.60079 3.74063C4.47779 3.61763 4.33048 3.52165 4.16827 3.45884C4.00606 3.39603 3.83252 3.36776 3.65876 3.37585C3.485 3.38394 3.31484 3.4282 3.15917 3.50582C3.0035 3.58343 2.86573 3.69267 2.7547 3.82657C1.45233 5.3875 0.78505 7.38136 0.885506 9.41176C0.985962 11.4422 1.8468 13.3604 3.29688 14.7852C4.81313 16.2895 6.86414 17.131 9.00001 17.125H9.11641C11.2293 17.089 13.2456 16.2336 14.7398 14.7393C16.234 13.2449 17.0893 11.2286 17.125 9.11563C17.1836 4.87345 13.9367 1.25626 9.7336 0.879696ZM3.71251 4.62032L5.86954 6.82266V6.82735C5.54936 7.28683 5.34829 7.81863 5.28438 8.37501H2.15313C2.2783 6.99382 2.82237 5.68381 3.71251 4.62032ZM2.15391 9.62501H5.30235C5.43196 10.3929 5.79745 11.1015 6.34807 11.6522C6.89868 12.203 7.60711 12.5686 8.37501 12.6984V15.8469C6.77426 15.7006 5.27536 14.9981 4.13882 13.8614C3.00228 12.7248 2.29995 11.2258 2.15391 9.62501ZM13.8547 13.8547C12.7226 14.9947 11.225 15.6992 9.62501 15.8445V12.6984C10.3493 12.5779 11.0216 12.2454 11.557 11.743C12.0689 11.2661 12.4372 10.6555 12.6202 9.98024C12.8032 9.30499 12.7937 8.59201 12.5927 7.9219C12.3917 7.25178 12.0072 6.65125 11.4828 6.1882C10.9584 5.72514 10.3149 5.41803 9.62501 5.30157V2.12501C13.1813 2.44376 15.9274 5.50626 15.875 9.09766C15.8505 10.8867 15.1251 12.5947 13.8547 13.8547Z" fill="#147D73"/>
</svg>
